<svg width="538" height="391" viewBox="0 0 538 391" fill="none" xmlns="http://www.w3.org/2000/svg">
<path d="M325.104 119.847C328.704 96.6474 338.63 97.5893 341 103.5C342.604 107.5 342 116 345.5 122C349.245 128.42 357 133.621 367 135C379.383 136.708 392.745 134.376 396.5 126C403 111.5 408.5 102 421 96.0004C434.142 89.6926 459.481 83.8201 474.104 91.3473C488 98.5001 492.519 111.807 483.5 128.5C475.396 143.5 455.113 159.699 431.604 160.847C408 162 403.66 146.707 382.5 144.847C370.426 143.786 358.5 146.458 351 144.847C343.5 143.237 337.5 139.5 333.104 135.847C331.194 134.26 333.604 140.847 330.604 142.347C327.604 143.847 321.504 143.047 325.104 119.847Z" fill="#FFDACA"/>
<path d="M213.069 123.041C209.469 99.841 199.544 100.783 197.173 106.694C195.569 110.694 195 117.041 191.5 123.041C187.755 129.461 176 134.621 166 136C153.617 137.708 144.255 135.376 140.5 127C134 112.5 129.673 105.194 117.173 99.1939C104.031 92.8861 78.6924 87.0137 64.0691 94.5409C50.1733 101.694 45.6544 115 54.6733 131.694C62.7774 146.694 81.5916 163.959 105 161.5C124.431 159.459 125.84 151.86 147 150C158.5 148.989 177 148.61 184.5 147C192 145.39 200.104 140.653 204.5 137C206.41 135.413 204.569 144.041 207.569 145.541C210.569 147.041 216.669 146.241 213.069 123.041Z" fill="#FFDACA"/>
<path d="M266 13.9998C301.391 11.2239 312.858 33.4837 351 54.9998C390 76.9998 411 42.9998 438.5 25.9998C456.5 14.8725 464 18.2158 477 13.9998C490.5 9.6216 499.5 -0.000287235 511.5 -0.000244141C524.248 -0.000198362 535.196 15.7387 531.5 39.5C528 62 515 84 504 100C487.697 123.714 494.5 156 487.5 156.5C484.382 156.723 486.5 142 490.5 127.5C493.305 117.332 482 154.5 475 154.5C469.4 154.5 480.834 140.333 484 131C480.5 138.333 468.5 154.5 466 150C463.801 146.042 489.086 130.5 487.5 111C486.627 100.265 469.168 78.4366 441 88.9998C425 95 408.5 98.5 408.5 91.5C408.5 87.4318 427 89.035 444.5 82.0352C461.621 75.1873 485.63 76.6659 489 75.5C505 69.9648 498.095 65.286 502 56.5C506 47.4998 508 48.0438 508 39.5C508 36 502.5 29.5 489 32.5C475.5 35.5 475 46 462 47.4998C444.057 49.57 442.772 45.796 431 50C417 54.9998 409.5 77.0002 389 85.5C371.298 92.8399 355 83.5 347.5 86.4998C341.051 89.0794 344.211 100.473 343 115C341.5 133 334 142 327 152C320 162 308 166.5 307 183.5C306 200.5 317 226.5 314.5 238.5C312 250.5 304.5 253 303 274.5C301.5 296 300.5 318 300.5 338C300.5 349.673 299 377 290 386C285 391 251.346 393 246.5 386C238.885 375 234.455 309.459 235.5 293C237.5 261.5 219.696 248.119 221 229C222.5 207 232.451 200.711 227.5 187C221 169 206.5 162.58 206.5 148.5C206.5 128.5 191.165 110.985 189.5 93.4998C188.5 83 181.571 91 174.5 91C170.5 91 162 91.5 151.5 86.5C140.875 81.4403 132.674 71.1335 119.5 60.9998C113 56 107.5 50.9116 98.5001 47.9998C81.5001 42.4998 76.6708 46.8742 66.5001 42.9998C56.0001 39 51.5001 29.5 42.0001 30.9998C36.5001 31.8681 26.5 37.6361 30.5 46C35.9999 57.5002 32.0001 64 45.5001 71.5C58.243 78.5794 80.6879 81.1543 91.5001 83.9998C101 86.5 121 90.5 125 93.4998C128.418 96.0629 122.465 99.0281 109.353 97.4969C115.967 99.5804 121.897 102.31 121 105C119.5 109.5 103.583 103.5 91.5001 103.5C89.5001 103.5 123 113 115.5 115C108 117 100 111 94.0001 109.5C99.5001 117 101.855 124.603 98.5001 127C95.0001 129.5 91.5001 124.727 83.0001 117C72.3284 107.299 92.5001 127 91.5001 133C90.4283 139.43 77.812 127 70.5001 123C62.6532 118.707 86.0001 137 83.0001 142.5C80.0385 147.93 72.0001 135.5 66.5001 129.5C58.3283 120.585 71.5001 142.5 70.5001 148.5C69.6419 153.649 66.4726 144.803 61.0001 135.5C56.0001 127 69.0001 157 61.0001 158C54.6001 158.8 57.0001 135.5 53.0001 127C54.8334 136.333 49.9001 159 45.5001 159C40.0001 159 49.0001 134.5 42.0001 119C35.0001 103.5 39.0001 113 32.0001 98.4998C25.0001 83.9998 13.5 74.5 4.00009 47.9998C-4.45152 24.424 6.26566 6.00734 18.4999 1.5C28 -2 35 7 45.5001 8.49981C66.9903 11.5694 79.0001 9.99981 94.0001 20.4998C109 30.9998 141.5 65.9998 165.5 60.9998C209.5 51.8331 215 17.9998 266 13.9998Z" fill="#FFC3D0"/>
<path d="M28.5 89.4999C20 81.1666 3.79997 59.6999 6.99997 40.4999C11 16.4999 5 3.49992 20 4.99992C35 6.49992 38 13 62.5 15.5C87 18 84.5 17.5 94 22.5C103.5 27.5 114.5 46 129 51C143.5 56 145.5 62 169.5 64.5C193.5 67 210 48.5 221.5 51C230.7 53 230.667 47.5 229.5 44.5L238.5 41.5L245.5 37.5L255 34.5C259 33.5 268.8 32.1 276 34.5C283.2 36.9 288.333 37.5 290 37.5L299.5 41.5L313 51C316.667 54.5 326.7 62.1 337.5 64.5C351 67.5 349.5 68.5 363.5 66.5C377.5 64.5 391 62.5 406.5 53.5C422 44.5 429.5 31 442.5 26C455.5 21 465.5 22.5 483 12.5C500.5 2.5 505.5 -1.90735e-06 515.5 0.999998C525.5 2 537 24 536.5 37.5C536 51 503 89.5 499.5 113C496 136.5 499.5 154 494.5 155.5C490.5 156.7 492.833 130.667 494.5 117.5C492.667 128.167 487.8 150.1 483 152.5C478.2 154.9 486 133.167 490.5 122C485.333 131 474.1 149 470.5 149C466 149 493 124.5 488 110.5C483 96.5 467.5 85 449.5 89C431.5 93 411.5 100 412 94.5C412.5 89 427.5 83.5 442.5 82C457.5 80.5 493.5 80.5 496.5 72.5C499.5 64.5 496.5 56 503 53.5C509.5 51 512.5 44.5 510 37.5C507.5 30.5 492 25.5 483 30C474 34.5 472.5 41.5 464.5 41.5C456.5 41.5 436.5 35.5 428.5 44.5C420.5 53.5 397.5 82 379 82C360.5 82 346 83.5 334.5 75C323 66.5 314 68 308.5 75C303 82 304.5 84 299.5 86.5C294.5 89 294.5 90.5 294.5 94.5C294.5 98.5 289.5 98.5 294.5 104.5C299.5 110.5 290 108 290 110.5C290 113 299 115 294.5 117.5C290 120 287.5 117.5 285.5 122C283.5 126.5 284 123.5 283 128.5C282 133.5 274.5 144.5 273 148C271.5 151.5 270 169 273 184C276 199 263 216 273 222.5C283 229 300.5 208.5 303.5 215.5C306.5 222.5 299.5 217 299.5 230C299.5 243 304.5 248 299.5 258.5C294.5 269 299 295.5 294.5 309.5C290 323.5 292.5 316 292 328.5C291.5 341 297.5 344.5 292 355C286.5 365.5 299 377 282.5 384.5C266 392 257 387 251.5 384.5C246 382 251 363.5 249 355C247 346.5 251.5 346.5 251.5 337.5C251.5 328.5 243 319 246 305C249 291 251.5 281.5 246 270C240.5 258.5 245.5 240.5 240.5 230C235.5 219.5 235 208.5 240.5 215.5C246 222.5 243.5 230 251.5 230C259.5 230 261.5 210 263.5 197C265.5 184 263.5 157 263.5 149C263.5 141 254 142 255.5 137C257 132 254.5 132 253 128.5C251.5 125 249.5 131.5 249 124.5C248.5 117.5 247.5 119.5 246 117.5C244.5 115.5 246 114.5 246 110.5C246 106.5 244.5 109.5 244.5 104.5C244.5 99.5 242.5 100.5 241.5 99.5C240.5 98.5 238.5 95 241.5 92C244.5 89 243 89.5 241.5 86.5C240 83.5 226.5 72.5 219.5 75C212.5 77.5 211 69.5 199.5 76.5C188 83.5 183 86.5 166.5 86.5C150 86.5 130 67.5001 112 54C94 40.4999 106.5 43.4998 84.5 40.4999C62.5 37.5 58 33.5 53 28C48 22.5 37 24.5 34.5 31C32 37.5 22.4999 38 28.5 44.5C34.5 51 29.5 58 37 66.5C43 73.3 56.5 78 62.5 79.5C81.6667 84.8334 120.9 94.9001 124.5 92.5C128.851 89.599 123.852 102.594 103.626 98.4825C113.455 101.146 128.751 105.84 121.5 107C113.569 108.269 100.919 105.009 92.2834 102.109C104.786 106.825 120.992 113.941 115.5 116C107.5 119 107 112.5 101.5 112C96 111.5 106 121.5 101.5 124.5C97 127.5 91 127 86.5 121.5C82 116 93.5 134 89 135C86.4283 135.572 81.2436 132.877 76.8059 129.436C80.1232 134.314 82.8018 139.579 80.5 140.5C76.6148 142.054 68.6415 131.155 64.8271 125.03C70.0403 133.519 78.7003 149.5 74 149.5C69.2 149.5 63.3333 140.167 61 135.5C62.8333 140.667 65.4 151.1 61 151.5C57.4885 151.819 55.0173 142.394 53.7388 134.762C54.6657 142.931 54.8765 153.531 51 154.5C45 156 47.5 123 43.5 110.5C40.3 100.5 32.1666 92.3333 28.5 89.4999Z" fill="#F79BCA" stroke="#F79BCA"/>
<path d="M145.5 79.4999C155.9 84.6999 174.833 83.9999 183 82.9999C179.333 84.4999 169.9 87.3999 161.5 86.9999C151 86.4999 132.5 72.9999 145.5 79.4999Z" fill="#059669" stroke="#059669" stroke-width="2"/>
<path d="M66 85.7282C69.3956 82.557 79 83.5001 83.4366 85.7283C92.3655 90.2127 98.5 94.0101 98.5 97C98.5 101.625 95.4628 101.548 83.4366 100.924C70.7029 100.263 61.7554 89.6922 66 85.7282Z" fill="#059669" stroke="#059669" stroke-width="2"/>
<path d="M458 21.5C456.4 20.3 459 19.5 463 19L468.5 18.5C465.667 20 459.6 22.7 458 21.5Z" fill="#059669"/>
<path d="M463 19L462.909 18.0041L462.893 18.0056L462.876 18.0077L463 19ZM458 21.5L457.4 22.3L457.4 22.3L458 21.5ZM468.5 18.5L468.968 19.3838C469.389 19.1609 469.594 18.6719 469.459 18.2152C469.323 17.7585 468.884 17.461 468.41 17.5041L468.5 18.5ZM462.876 18.0077C460.878 18.2574 459.098 18.5943 458.002 19.0702C457.719 19.193 457.441 19.3421 457.204 19.529C456.973 19.712 456.716 19.9833 456.592 20.3661C456.299 21.2756 456.934 21.9504 457.4 22.3L458.6 20.7C458.266 20.4496 458.627 20.5744 458.495 20.9808C458.453 21.112 458.387 21.1435 458.444 21.0979C458.497 21.0564 458.606 20.9882 458.798 20.9048C459.602 20.5557 461.122 20.2426 463.124 19.9923L462.876 18.0077ZM457.4 22.3C457.79 22.5927 458.251 22.7202 458.678 22.7703C459.11 22.8211 459.577 22.8005 460.045 22.7403C460.98 22.62 462.049 22.324 463.113 21.9581C465.248 21.2236 467.522 20.1494 468.968 19.3838L468.032 17.6162C466.645 18.3506 464.469 19.3764 462.462 20.0669C461.455 20.4135 460.531 20.6612 459.79 20.7566C459.42 20.8042 459.128 20.8094 458.911 20.784C458.689 20.7579 458.61 20.7073 458.6 20.7L457.4 22.3ZM468.41 17.5041L462.909 18.0041L463.091 19.9959L468.591 19.4959L468.41 17.5041Z" fill="#059669"/>
<path d="M471 31C472.2 28.6 477.5 27.3333 480 27C477.833 29.1667 473.3 33.6 472.5 34C471.5 34.5 469.5 34 471 31Z" fill="#059669"/>
<path d="M480 27L480.707 27.7071C481.01 27.404 481.087 26.9413 480.897 26.557C480.707 26.1726 480.293 25.9521 479.868 26.0088L480 27ZM472.5 34L472.947 34.8944L472.947 34.8944L472.5 34ZM479.868 26.0088C478.563 26.1828 476.538 26.5974 474.667 27.2866C473.731 27.6314 472.802 28.056 472.013 28.5728C471.234 29.083 470.516 29.7313 470.106 30.5528L471.894 31.4472C472.084 31.0687 472.479 30.6586 473.109 30.246C473.729 29.8399 474.507 29.4769 475.358 29.1634C477.062 28.536 478.937 28.1505 480.132 27.9912L479.868 26.0088ZM470.106 30.5528C469.309 32.1456 469.183 33.5976 470.105 34.5196C470.939 35.3534 472.193 35.2716 472.947 34.8944L472.053 33.1056C471.97 33.1472 471.839 33.1769 471.71 33.167C471.584 33.1573 471.532 33.1175 471.52 33.1054C471.514 33.0998 471.502 33.0869 471.49 33.0537C471.477 33.0184 471.459 32.9462 471.461 32.8216C471.465 32.5621 471.558 32.1194 471.894 31.4472L470.106 30.5528ZM472.947 34.8944C473.154 34.7911 473.388 34.6141 473.588 34.4542C473.811 34.2757 474.076 34.0491 474.368 33.791C474.952 33.2738 475.671 32.6052 476.426 31.8874C477.939 30.4506 479.62 28.7943 480.707 27.7071L479.293 26.2929C478.213 27.3724 476.545 29.0161 475.049 30.4376C474.3 31.149 473.6 31.7991 473.042 32.2934C472.762 32.541 472.525 32.7433 472.339 32.8923C472.129 33.0599 472.046 33.1089 472.053 33.1056L472.947 34.8944Z" fill="#059669"/>
<path d="M443 37.5C441.4 35.1 449.333 34.8333 453.5 35C456 35 461.5 35.5 463.5 37.5C466 40 445 40.5 443 37.5Z" fill="#059669" stroke="#059669" stroke-width="2"/>
<path d="M428.5 34.9999C426.9 32.9999 432.833 29.8333 436 28.4999C438.333 27.1666 443.6 25.0999 446 27.4999C449 30.4999 443 31.4999 440 31.4999C437 31.4999 430.5 37.4999 428.5 34.9999Z" fill="#059669" stroke="#059669" stroke-width="2"/>
<path d="M365.5 146L377.5 144.5C383.5 144.5 384.9 147.3 386.5 146.5C388.5 145.5 399.5 149 399.5 151.5C399.5 154 387.5 150.5 384.5 151.5C381.5 152.5 379 151.5 374 150C369 148.5 369 152 364.5 151.5C360 151 350 146 354.5 144.5C358.1 143.3 363.333 145 365.5 146Z" fill="#059669" stroke="#059669" stroke-width="2"/>
<path d="M485 105C484.6 101 481.5 97.5 478 95C474 92.1428 472 90.5 468.5 89.5C465.727 88.7076 464.5 90.1666 464 91.5C462.667 91.3333 460.3 91.6 461.5 94C463 97 465 96.5 467 97.5C469 98.5 470.5 96.5 470.5 100.5C470.5 104.5 474 102.5 475 105C476 107.5 480.5 111 482.5 110.5C484.5 110 485.5 110 485 105Z" fill="#059669" stroke="#059669" stroke-width="2"/>
<path d="M237 253C236.6 248.6 238.167 242.833 239 240.5L241 248.5C242 252.5 239 265 239 263.5C239 262 237.5 258.5 237 253Z" fill="#059669"/>
<path d="M239 240.5L239.97 240.257C239.863 239.83 239.489 239.523 239.049 239.501C238.609 239.48 238.206 239.749 238.058 240.164L239 240.5ZM237 253L237.996 252.909L237 253ZM241 248.5L241.97 248.257L241.97 248.257L241 248.5ZM238.058 240.164C237.211 242.535 235.584 248.469 236.004 253.091L237.996 252.909C237.616 248.731 239.122 243.132 239.942 240.836L238.058 240.164ZM236.004 253.091C236.261 255.912 236.774 258.218 237.217 259.993C237.444 260.9 237.637 261.608 237.785 262.231C237.934 262.859 238 263.255 238 263.5H240C240 262.995 239.878 262.391 239.731 261.769C239.582 261.142 239.368 260.35 239.158 259.507C238.726 257.782 238.239 255.588 237.996 252.909L236.004 253.091ZM238 263.5C238 263.558 238 263.708 238.045 263.869C238.062 263.929 238.129 264.168 238.354 264.368C238.486 264.486 238.675 264.59 238.909 264.617C239.137 264.644 239.327 264.589 239.456 264.529C239.681 264.424 239.807 264.264 239.842 264.218C239.895 264.15 239.931 264.087 239.953 264.047C239.998 263.964 240.033 263.88 240.059 263.812C240.162 263.547 240.288 263.116 240.421 262.603C240.694 261.551 241.043 259.98 241.359 258.241C241.675 256.503 241.962 254.578 242.106 252.824C242.247 251.104 242.263 249.43 241.97 248.257L240.03 248.743C240.237 249.57 240.253 250.958 240.113 252.66C239.976 254.328 239.7 256.184 239.391 257.884C239.082 259.583 238.744 261.105 238.485 262.1C238.353 262.611 238.252 262.942 238.195 263.088C238.181 263.124 238.18 263.12 238.194 263.096C238.2 263.085 238.222 263.045 238.261 262.994C238.283 262.965 238.396 262.816 238.611 262.716C238.735 262.659 238.92 262.605 239.142 262.631C239.372 262.658 239.556 262.76 239.684 262.874C239.9 263.067 239.961 263.292 239.972 263.331C240.005 263.452 240 263.536 240 263.5H238ZM241.97 248.257L239.97 240.257L238.03 240.743L240.03 248.743L241.97 248.257Z" fill="#059669"/>
<path d="M293 322C293 316.663 293.5 302.833 293 296.5C292.333 297.833 290.6 301.1 289 303.5C287 306.5 289.414 308.086 288 309.5C285.5 312 285 315.5 284 322C283 328.5 293 335.5 293 334.5V322Z" fill="#059669"/>
<path d="M293 296.5L293.997 296.421C293.962 295.974 293.632 295.604 293.191 295.518C292.75 295.433 292.306 295.651 292.106 296.053L293 296.5ZM284 322L284.988 322.152L284 322ZM288 309.5L287.293 308.793L287.293 308.793L288 309.5ZM289 303.5L289.832 304.055L289.832 304.055L289 303.5ZM292.003 296.579C292.499 302.862 292 316.574 292 322H294C294 316.753 294.501 302.804 293.997 296.421L292.003 296.579ZM292 322V334.5H294V322H292ZM292 334.5C292 334.31 292.07 334.022 292.328 333.805C292.55 333.618 292.781 333.598 292.859 333.596C293.003 333.592 293.057 333.633 292.943 333.588C292.768 333.518 292.449 333.346 292.009 333.052C291.148 332.475 289.983 331.536 288.841 330.365C287.698 329.192 286.612 327.819 285.874 326.38C285.135 324.938 284.781 323.499 284.988 322.152L283.012 321.848C282.719 323.751 283.24 325.625 284.094 327.292C284.951 328.963 286.177 330.496 287.409 331.76C288.642 333.026 289.914 334.056 290.897 334.714C291.379 335.037 291.833 335.298 292.201 335.445C292.359 335.508 292.627 335.604 292.916 335.595C293.068 335.591 293.354 335.555 293.615 335.336C293.911 335.087 294 334.753 294 334.5H292ZM284.988 322.152C285.492 318.875 285.858 316.448 286.4 314.521C286.933 312.625 287.616 311.298 288.707 310.207L287.293 308.793C285.884 310.202 285.067 311.875 284.475 313.979C283.892 316.052 283.508 318.625 283.012 321.848L284.988 322.152ZM288.707 310.207C289.265 309.649 289.466 309.025 289.472 308.397C289.477 307.874 289.334 307.29 289.263 306.911C289.182 306.474 289.134 306.071 289.191 305.633C289.246 305.204 289.411 304.687 289.832 304.055L288.168 302.945C287.589 303.813 287.305 304.619 287.207 305.375C287.11 306.123 287.202 306.767 287.297 307.278C287.403 307.848 287.474 308.112 287.472 308.378C287.47 308.54 287.442 308.644 287.293 308.793L288.707 310.207ZM289.832 304.055C291.466 301.604 293.22 298.295 293.894 296.947L292.106 296.053C291.446 297.371 289.734 300.596 288.168 302.945L289.832 304.055Z" fill="#059669"/>
<path d="M222.5 24.9999C223.7 22.5999 230.667 20.6666 234 19.9999C234 16.4999 244 13.9999 246.5 13.9999C249 13.9999 265 10.4999 268.5 13.9999C272 17.4999 261.5 12.4999 265 15.9999C268.5 19.4999 253.5 17.9999 256 18.4999C258.5 18.9999 257.5 21.4999 253.5 23.4999C250.3 25.0999 247.5 22.8332 246.5 21.4999C246.5 22.1666 246 23.7999 244 24.9999C242.3 26.02 240.238 25.6671 239.044 25.2312C239.186 25.5404 238.811 26.2064 237 27.4999C233.5 29.9999 231 26.4999 228.5 27.4999C226 28.4999 221 27.9999 222.5 24.9999Z" fill="#059669"/>
<path d="M234 19.9999C230.667 20.6666 223.7 22.5999 222.5 24.9999C221 27.9999 226 28.4999 228.5 27.4999C231 26.4999 233.5 29.9999 237 27.4999C239.8 25.4999 239.167 24.9999 238.5 24.9999C239.5 25.4999 242 26.1999 244 24.9999C246 23.7999 246.5 22.1666 246.5 21.4999C247.5 22.8332 250.3 25.0999 253.5 23.4999C257.5 21.4999 258.5 18.9999 256 18.4999C253.5 17.9999 268.5 19.4999 265 15.9999C261.5 12.4999 272 17.4999 268.5 13.9999C265 10.4999 249 13.9999 246.5 13.9999C244 13.9999 234 16.4999 234 19.9999Z" stroke="#059669" stroke-width="2"/>
<path d="M205 74C205.8 70 211.333 70.6667 214 71.5C214.5 71 216 69.9 218 69.5C220.5 69 219.5 71.5 222 71.5C224 71.5 224.833 73.8333 225 75C225.667 74.6666 227.9 74.2 231.5 75C235.1 75.7999 236 79.6666 236 81.5C237.167 81.8333 239.3 83.3 238.5 86.5C237.765 89.4396 234.161 88.9474 232.029 88.2018C232.45 88.503 232.237 89.0878 229.5 90C226.057 91.1477 224.169 88.7277 223.573 87.2023C223.579 87.6219 222.498 87.8839 218 86.5C211.5 84.5 214 78.5 212.5 79.5C211 80.5 204 79 205 74Z" fill="#059669"/>
<path d="M214 71.5C211.333 70.6667 205.8 70 205 74C204 79 211 80.5 212.5 79.5C214 78.5 211.5 84.5 218 86.5C223.2 88.1 223.833 87.5 223.5 87C224 88.5 225.9 91.2 229.5 90C233.1 88.8 232.333 88.1666 231.5 88C233.5 88.8333 237.7 89.7 238.5 86.5C239.3 83.3 237.167 81.8333 236 81.5C236 79.6666 235.1 75.7999 231.5 75C227.9 74.2 225.667 74.6666 225 75C224.833 73.8333 224 71.5 222 71.5C219.5 71.5 220.5 69 218 69.5C216 69.9 214.5 71 214 71.5Z" stroke="#059669" stroke-width="2"/>
<path d="M66 85.7282C69.3956 82.557 79 83.5001 83.4366 85.7283C92.3655 90.2127 98.5 94.0101 98.5 97C98.5 101.625 95.4628 101.548 83.4366 100.924C70.7029 100.263 61.7554 89.6922 66 85.7282Z" fill="#059669" stroke="#059669" stroke-width="2"/>
<path d="M91.5 157.5C93.9 155.1 100.181 156.097 103 156.5C110 157.5 114 160.237 114 162.5C114 166 111.5 168.472 103 168C94 167.5 88.5 160.5 91.5 157.5Z" fill="#059669" stroke="#059669" stroke-width="2"/>
<path d="M305 152.5C305 146 312.247 140.109 318.5 140.5C326.5 141 328.339 146.848 330 151C332 156 333 163 330.5 168C328 173 315.5 178.5 313 183.5C310.5 188.5 308.5 193.667 301.5 193C291 192 297 179.5 300.5 173C304 166.5 305 159 305 152.5Z" fill="#059669" stroke="#059669" stroke-width="2"/>
</svg>
