<svg width="538" height="391" viewBox="0 0 538 391" fill="none" xmlns="http://www.w3.org/2000/svg">
<path d="M325.104 119.847C328.704 96.6474 338.63 97.5893 341 103.5C342.604 107.5 342 116 345.5 122C349.245 128.42 357 133.621 367 135C379.383 136.708 392.745 134.376 396.5 126C403 111.5 408.5 102 421 96.0004C434.142 89.6926 459.481 83.8201 474.104 91.3473C488 98.5001 492.519 111.807 483.5 128.5C475.396 143.5 455.113 159.699 431.604 160.847C408 162 403.66 146.707 382.5 144.847C370.426 143.786 358.5 146.458 351 144.847C343.5 143.237 337.5 139.5 333.104 135.847C331.194 134.26 333.604 140.847 330.604 142.347C327.604 143.847 321.504 143.047 325.104 119.847Z" fill="#FFDACA"/>
<path d="M213.069 123.041C209.469 99.841 199.544 100.783 197.173 106.694C195.569 110.694 195 117.041 191.5 123.041C187.755 129.461 176 134.621 166 136C153.617 137.708 144.255 135.376 140.5 127C134 112.5 129.673 105.194 117.173 99.1939C104.031 92.8861 78.6925 87.0137 64.0692 94.5409C50.1733 101.694 45.6544 115 54.6733 131.694C62.7775 146.694 81.5916 163.959 105 161.5C124.431 159.459 125.84 151.86 147 150C158.5 148.989 177 148.61 184.5 147C192 145.39 200.104 140.653 204.5 137C206.41 135.413 204.569 144.041 207.569 145.541C210.569 147.041 216.669 146.241 213.069 123.041Z" fill="#FFDACA"/>
<path d="M266 13.9998C301.392 11.2239 312.858 33.4837 351 54.9998C390 76.9998 411 42.9998 438.5 25.9998C456.5 14.8725 464 18.2158 477 13.9998C490.5 9.6216 499.5 -0.000287235 511.5 -0.000244141C524.248 -0.000198362 535.196 15.7387 531.5 39.5C528 62 515 84 504 100C487.697 123.714 494.5 156 487.5 156.5C484.382 156.723 486.5 142 490.5 127.5C493.305 117.332 482 154.5 475 154.5C469.4 154.5 480.834 140.333 484 131C480.5 138.333 468.5 154.5 466 150C463.801 146.042 489.087 130.5 487.5 111C486.627 100.265 469.168 78.4366 441 88.9998C425 95 408.5 98.5 408.5 91.5C408.5 87.4318 427 89.035 444.5 82.0352C461.621 75.1873 485.63 76.6659 489 75.5C505 69.9648 498.095 65.286 502 56.5C506 47.4998 508 48.0438 508 39.5C508 36 502.5 29.5 489 32.5C475.5 35.5 475 46 462 47.4998C444.057 49.57 442.772 45.796 431 50C417 54.9998 409.5 77.0002 389 85.5C371.298 92.8399 355 83.5 347.5 86.4998C341.051 89.0794 344.211 100.473 343 115C341.5 133 334 142 327 152C320 162 308 166.5 307 183.5C306 200.5 317 226.5 314.5 238.5C312 250.5 304.5 253 303 274.5C301.5 296 300.5 318 300.5 338C300.5 349.673 299 377 290 386C285 391 251.346 393 246.5 386C238.885 375 234.455 309.459 235.5 293C237.5 261.5 219.696 248.119 221 229C222.5 207 232.451 200.711 227.5 187C221 169 206.5 162.58 206.5 148.5C206.5 128.5 191.165 110.985 189.5 93.4998C188.5 83 181.571 91 174.5 91C170.5 91 162 91.5 151.5 86.5C140.875 81.4403 132.674 71.1335 119.5 60.9998C113 56 107.5 50.9116 98.5002 47.9998C81.5002 42.4998 76.6709 46.8742 66.5002 42.9998C56.0001 39 51.5001 29.5 42.0002 30.9998C36.5001 31.8681 26.5001 37.6361 30.5001 46C36 57.5002 32.0001 64 45.5001 71.5C58.243 78.5794 80.688 81.1543 91.5001 83.9998C101 86.5 121 90.5 125 93.4998C128.418 96.0629 122.465 99.0281 109.353 97.4969C115.967 99.5804 121.897 102.31 121 105C119.5 109.5 103.583 103.5 91.5001 103.5C89.5001 103.5 123 113 115.5 115C108 117 100 111 94.0001 109.5C99.5001 117 101.855 124.603 98.5002 127C95.0001 129.5 91.5001 124.727 83.0001 117C72.3285 107.299 92.5001 127 91.5001 133C90.4284 139.43 77.812 127 70.5001 123C62.6533 118.707 86.0001 137 83.0001 142.5C80.0386 147.93 72.0001 135.5 66.5002 129.5C58.3284 120.585 71.5001 142.5 70.5001 148.5C69.6419 153.649 66.4727 144.803 61.0001 135.5C56.0001 127 69.0001 157 61.0001 158C54.6001 158.8 57.0001 135.5 53.0001 127C54.8335 136.333 49.9001 159 45.5001 159C40.0001 159 49.0002 134.5 42.0002 119C35.0001 103.5 39.0001 113 32.0001 98.4998C25.0001 83.9998 13.5001 74.5 4.00015 47.9998C-4.45146 24.424 6.26572 6.00734 18.5 1.5C28.0001 -2 35.0001 7 45.5001 8.49981C66.9903 11.5694 79.0001 9.99981 94.0001 20.4998C109 30.9998 141.5 65.9998 165.5 60.9998C209.5 51.8331 215 17.9998 266 13.9998Z" fill="#FFC3D0"/>
<path d="M28.5 89.4999C20 81.1666 3.79997 59.6999 6.99997 40.4999C11 16.4999 5 3.49992 20 4.99992C35 6.49992 38 13 62.5 15.5C87 18 84.5 17.5 94 22.5C103.5 27.5 114.5 46 129 51C143.5 56 145.5 62 169.5 64.5C193.5 67 210 48.5 221.5 51C230.7 53 230.667 47.5 229.5 44.5L238.5 41.5L245.5 37.5L255 34.5C259 33.5 268.8 32.1 276 34.5C283.2 36.9 288.333 37.5 290 37.5L299.5 41.5L313 51C316.667 54.5 326.7 62.1 337.5 64.5C351 67.5 349.5 68.5 363.5 66.5C377.5 64.5 391 62.5 406.5 53.5C422 44.5 429.5 31 442.5 26C455.5 21 465.5 22.5 483 12.5C500.5 2.5 505.5 -1.90735e-06 515.5 0.999998C525.5 2 537 24 536.5 37.5C536 51 503 89.5 499.5 113C496 136.5 499.5 154 494.5 155.5C490.5 156.7 492.833 130.667 494.5 117.5C492.667 128.167 487.8 150.1 483 152.5C478.2 154.9 486 133.167 490.5 122C485.333 131 474.1 149 470.5 149C466 149 493 124.5 488 110.5C483 96.5 467.5 85 449.5 89C431.5 93 411.5 100 412 94.5C412.5 89 427.5 83.5 442.5 82C457.5 80.5 493.5 80.5 496.5 72.5C499.5 64.5 496.5 56 503 53.5C509.5 51 512.5 44.5 510 37.5C507.5 30.5 492 25.5 483 30C474 34.5 472.5 41.5 464.5 41.5C456.5 41.5 436.5 35.5 428.5 44.5C420.5 53.5 397.5 82 379 82C360.5 82 346 83.5 334.5 75C323 66.5 314 68 308.5 75C303 82 304.5 84 299.5 86.5C294.5 89 294.5 90.5 294.5 94.5C294.5 98.5 289.5 98.5 294.5 104.5C299.5 110.5 290 108 290 110.5C290 113 299 115 294.5 117.5C290 120 287.5 117.5 285.5 122C283.5 126.5 284 123.5 283 128.5C282 133.5 274.5 144.5 273 148C271.5 151.5 270 169 273 184C276 199 263 216 273 222.5C283 229 300.5 208.5 303.5 215.5C306.5 222.5 299.5 217 299.5 230C299.5 243 304.5 248 299.5 258.5C294.5 269 299 295.5 294.5 309.5C290 323.5 292.5 316 292 328.5C291.5 341 297.5 344.5 292 355C286.5 365.5 299 377 282.5 384.5C266 392 257 387 251.5 384.5C246 382 251 363.5 249 355C247 346.5 251.5 346.5 251.5 337.5C251.5 328.5 243 319 246 305C249 291 251.5 281.5 246 270C240.5 258.5 245.5 240.5 240.5 230C235.5 219.5 235 208.5 240.5 215.5C246 222.5 243.5 230 251.5 230C259.5 230 261.5 210 263.5 197C265.5 184 263.5 157 263.5 149C263.5 141 254 142 255.5 137C257 132 254.5 132 253 128.5C251.5 125 249.5 131.5 249 124.5C248.5 117.5 247.5 119.5 246 117.5C244.5 115.5 246 114.5 246 110.5C246 106.5 244.5 109.5 244.5 104.5C244.5 99.5 242.5 100.5 241.5 99.5C240.5 98.5 238.5 95 241.5 92C244.5 89 243 89.5 241.5 86.5C240 83.5 226.5 72.5 219.5 75C212.5 77.5 211 69.5 199.5 76.5C188 83.5 183 86.5 166.5 86.5C150 86.5 130 67.5001 112 54C94 40.4999 106.5 43.4998 84.5 40.4999C62.5 37.5 58 33.5 53 28C48 22.5 37 24.5 34.5 31C32 37.5 22.4999 38 28.5 44.5C34.5 51 29.5 58 37 66.5C43 73.3 56.5 78 62.5 79.5C81.6667 84.8334 120.9 94.9001 124.5 92.5C128.851 89.599 123.852 102.594 103.626 98.4825C113.455 101.146 128.751 105.84 121.5 107C113.569 108.269 100.919 105.009 92.2834 102.109C104.786 106.825 120.992 113.941 115.5 116C107.5 119 107 112.5 101.5 112C96 111.5 106 121.5 101.5 124.5C97 127.5 91 127 86.5 121.5C82 116 93.5 134 89 135C86.4283 135.572 81.2436 132.877 76.8059 129.436C80.1232 134.314 82.8018 139.579 80.5 140.5C76.6148 142.054 68.6415 131.155 64.8271 125.03C70.0403 133.519 78.7003 149.5 74 149.5C69.2 149.5 63.3333 140.167 61 135.5C62.8333 140.667 65.4 151.1 61 151.5C57.4885 151.819 55.0173 142.394 53.7388 134.762C54.6657 142.931 54.8765 153.531 51 154.5C45 156 47.5 123 43.5 110.5C40.3 100.5 32.1666 92.3333 28.5 89.4999Z" fill="#F79BCA"/>
<path d="M28.5 89.4999C20 81.1666 3.79997 59.6999 6.99997 40.4999C11 16.4999 5 3.49992 20 4.99992C35 6.49992 38 13 62.5 15.5C87 18 84.5 17.5 94 22.5C103.5 27.5 114.5 46 129 51C143.5 56 145.5 62 169.5 64.5C193.5 67 210 48.5 221.5 51C230.7 53 230.667 47.5 229.5 44.5L238.5 41.5L245.5 37.5L255 34.5C259 33.5 268.8 32.1 276 34.5C283.2 36.9 288.333 37.5 290 37.5L299.5 41.5L313 51C316.667 54.5 326.7 62.1 337.5 64.5C351 67.5 349.5 68.5 363.5 66.5C377.5 64.5 391 62.5 406.5 53.5C422 44.5 429.5 31 442.5 26C455.5 21 465.5 22.5 483 12.5C500.5 2.5 505.5 -1.89245e-06 515.5 0.999998C525.5 2 537 24 536.5 37.5C536 51 503 89.5 499.5 113C496 136.5 499.5 154 494.5 155.5C490.5 156.7 492.833 130.667 494.5 117.5C492.667 128.167 487.8 150.1 483 152.5C478.2 154.9 486 133.167 490.5 122C485.333 131 474.1 149 470.5 149C466 149 493 124.5 488 110.5C483 96.5 467.5 85 449.5 89C431.5 93 411.5 100 412 94.5C412.5 89 427.5 83.5 442.5 82C457.5 80.5 493.5 80.5 496.5 72.5C499.5 64.5 496.5 56 503 53.5C509.5 51 512.5 44.5 510 37.5C507.5 30.5 492 25.5 483 30C474 34.5 472.5 41.5 464.5 41.5C456.5 41.5 436.5 35.5 428.5 44.5C420.5 53.5 397.5 82 379 82C360.5 82 346 83.5 334.5 75C323 66.5 314 68 308.5 75C303 82 304.5 84 299.5 86.5C294.5 89 294.5 90.5 294.5 94.5C294.5 98.5 289.5 98.5 294.5 104.5C299.5 110.5 290 108 290 110.5C290 113 299 115 294.5 117.5C290 120 287.5 117.5 285.5 122C283.5 126.5 284 123.5 283 128.5C282 133.5 274.5 144.5 273 148C271.5 151.5 270 169 273 184C276 199 263 216 273 222.5C283 229 300.5 208.5 303.5 215.5C306.5 222.5 299.5 217 299.5 230C299.5 243 304.5 248 299.5 258.5C294.5 269 299 295.5 294.5 309.5C290 323.5 292.5 316 292 328.5C291.5 341 297.5 344.5 292 355C286.5 365.5 299 377 282.5 384.5C266 392 257 387 251.5 384.5C246 382 251 363.5 249 355C247 346.5 251.5 346.5 251.5 337.5C251.5 328.5 243 319 246 305C249 291 251.5 281.5 246 270C240.5 258.5 245.5 240.5 240.5 230C235.5 219.5 235 208.5 240.5 215.5C246 222.5 243.5 230 251.5 230C259.5 230 261.5 210 263.5 197C265.5 184 263.5 157 263.5 149C263.5 141 254 142 255.5 137C257 132 254.5 132 253 128.5C251.5 125 249.5 131.5 249 124.5C248.5 117.5 247.5 119.5 246 117.5C244.5 115.5 246 114.5 246 110.5C246 106.5 244.5 109.5 244.5 104.5C244.5 99.5 242.5 100.5 241.5 99.5C240.5 98.5 238.5 95 241.5 92C244.5 89 243 89.5 241.5 86.5C240 83.5 226.5 72.5 219.5 75C212.5 77.5 211 69.5 199.5 76.5C188 83.5 183 86.5 166.5 86.5C150 86.5 130 67.5001 112 54C94 40.4999 106.5 43.4998 84.5 40.4999C62.5 37.5 58 33.5 53 28C48 22.5 37 24.5 34.5 31C32 37.5 22.4999 38 28.5 44.5C34.5 51 29.5 58 37 66.5C43 73.3 56.5 78 62.5 79.5C81.6667 84.8334 120.9 94.9001 124.5 92.5C129 89.4999 123.5 103.5 101.5 98C79.5 92.5 134 105 121.5 107C111.5 108.6 94 103 86.5 100C98.8333 104.333 121.9 113.6 115.5 116C107.5 119 107 112.5 101.5 112C96 111.5 106 121.5 101.5 124.5C97 127.5 91 127 86.5 121.5C82 116 93.5 134 89 135C84.5 136 72 127 69.5 121.5C67 116 85.5 138.5 80.5 140.5C76.5 142.1 68.1667 130.5 64.5 124.5C69.6667 132.833 78.8 149.5 74 149.5C69.2 149.5 63.3333 140.167 61 135.5C62.8333 140.667 65.4 151.1 61 151.5C56.6 151.9 53.8333 137 53 129.5C54.3333 137.333 55.8 153.3 51 154.5C45 156 47.5 123 43.5 110.5C40.3 100.5 32.1666 92.3333 28.5 89.4999Z" stroke="#F79BCA"/>
<path d="M481.5 101.5C480.123 99.9371 480.813 98.1233 483.5 100.5C487.053 103.643 488.048 109.683 486 109C484.5 108.5 483.221 103.454 481.5 101.5Z" fill="#059669" stroke="#059669" stroke-width="2"/>
<path d="M474.314 101.355C473.873 100.872 473.815 99.4744 474.676 100.21C475.814 101.182 476.133 103.05 475.477 102.839C474.996 102.684 474.865 101.959 474.314 101.355Z" fill="#059669" stroke="#059669" stroke-width="2"/>
<path d="M464.664 92.3275C463.34 91.3607 464.004 90.2387 466.586 91.709C470 93.6531 470.956 97.3892 468.988 96.967C467.547 96.6577 466.318 93.536 464.664 92.3275Z" fill="#059669" stroke="#059669" stroke-width="2"/>
<path d="M472.565 30.3478C473.823 28.3391 479.379 27.279 482 27C479.729 28.8134 474.976 32.5238 474.138 32.8586C473.09 33.2771 470.993 32.8586 472.565 30.3478Z" fill="#059669"/>
<path d="M482 27L482.624 27.7815C482.971 27.5042 483.094 27.031 482.925 26.6199C482.756 26.2088 482.336 25.9586 481.894 26.0056L482 27ZM472.565 30.3478L473.413 30.8786L472.565 30.3478ZM474.138 32.8586L473.767 31.9299L473.767 31.9299L474.138 32.8586ZM482 27L481.894 26.0056C480.54 26.1498 478.434 26.494 476.49 27.0659C475.518 27.3516 474.556 27.7029 473.738 28.1303C472.942 28.5465 472.172 29.0912 471.718 29.817L472.565 30.3478L473.413 30.8786C473.587 30.6 473.984 30.2589 474.665 29.9027C475.325 29.5577 476.152 29.2499 477.054 28.9846C478.857 28.4545 480.839 28.1292 482.106 27.9944L482 27ZM472.565 30.3478L471.718 29.817C471.276 30.5227 471.014 31.1991 471.001 31.837C470.986 32.526 471.266 33.1006 471.745 33.4832C472.185 33.8343 472.717 33.9664 473.167 33.9941C473.624 34.0221 474.101 33.9503 474.509 33.7874L474.138 32.8586L473.767 31.9299C473.651 31.9762 473.472 32.009 473.29 31.9978C473.102 31.9863 473.012 31.9353 472.993 31.9202C472.99 31.9177 472.998 31.9242 473.004 31.937C473.009 31.9495 472.999 31.9372 473 31.8794C473.003 31.7458 473.069 31.4283 473.413 30.8786L472.565 30.3478ZM474.138 32.8586L474.509 33.7874C474.711 33.7065 474.949 33.5636 475.161 33.428C475.395 33.2791 475.672 33.0896 475.978 32.8736C476.59 32.4409 477.344 31.8813 478.136 31.2805C479.721 30.0779 481.484 28.6915 482.624 27.7815L482 27L481.376 26.2185C480.245 27.1219 478.496 28.4975 476.927 29.6871C476.142 30.2825 475.409 30.8266 474.824 31.2403C474.53 31.4476 474.281 31.6171 474.085 31.7423C473.987 31.8049 473.908 31.8526 473.847 31.8869C473.781 31.9244 473.758 31.9334 473.767 31.9299L474.138 32.8586Z" fill="#059669"/>
<path d="M458 21.5C456.4 20.3 459 19.5 463 19L468.5 18.5C465.667 20 459.6 22.7 458 21.5Z" fill="#059669"/>
<path d="M463 19L462.909 18.0041L462.893 18.0056L462.876 18.0077L463 19ZM458 21.5L457.4 22.3L457.4 22.3L458 21.5ZM468.5 18.5L468.968 19.3838C469.389 19.1609 469.594 18.6719 469.459 18.2152C469.323 17.7585 468.884 17.461 468.41 17.5041L468.5 18.5ZM463 19L462.876 18.0077C460.878 18.2574 459.098 18.5943 458.002 19.0702C457.719 19.193 457.441 19.3421 457.204 19.529C456.973 19.712 456.716 19.9833 456.592 20.3661C456.299 21.2756 456.934 21.9504 457.4 22.3L458 21.5L458.6 20.7C458.266 20.4496 458.627 20.5744 458.495 20.9808C458.453 21.112 458.387 21.1435 458.444 21.0979C458.497 21.0564 458.606 20.9882 458.798 20.9048C459.602 20.5557 461.122 20.2426 463.124 19.9923L463 19ZM458 21.5L457.4 22.3C457.79 22.5927 458.251 22.7202 458.678 22.7703C459.11 22.8211 459.577 22.8005 460.045 22.7403C460.98 22.62 462.049 22.324 463.113 21.9581C465.248 21.2236 467.522 20.1494 468.968 19.3838L468.5 18.5L468.032 17.6162C466.645 18.3506 464.469 19.3764 462.462 20.0669C461.455 20.4135 460.531 20.6612 459.79 20.7566C459.42 20.8042 459.128 20.8094 458.911 20.784C458.689 20.7579 458.61 20.7073 458.6 20.7L458 21.5ZM468.5 18.5L468.41 17.5041L462.909 18.0041L463 19L463.091 19.9959L468.591 19.4959L468.5 18.5Z" fill="#059669"/>
<path d="M446.181 36.6541C444.804 35.0912 451.631 34.9175 455.217 35.0261C457.368 35.0261 462.101 35.3517 463.822 36.6541C465.974 38.2821 447.902 38.6078 446.181 36.6541Z" fill="#059669" stroke="#059669" stroke-width="2"/>
<path d="M429.26 35.4708C427.711 33.7342 433.457 30.9845 436.524 29.8267C438.783 28.6689 443.884 26.8744 446.208 28.9584C449.114 31.5634 443.303 32.4317 440.397 32.4317C437.492 32.4317 431.197 37.6417 429.26 35.4708Z" fill="#059669" stroke="#059669" stroke-width="2"/>
<path d="M400.5 151.5C397.472 150.936 385 150.447 384.5 148.5C384 146.553 386.463 146.5 390.5 146.5C395.546 146.5 402.5 151.872 400.5 151.5Z" fill="#059669"/>
<path d="M384.5 148.5L384.016 148.624L384.5 148.5ZM400.5 151.5L400.591 151.009L400.5 151.5ZM384.5 148.5L384.016 148.624C384.136 149.094 384.569 149.401 384.98 149.61C385.423 149.836 386.004 150.027 386.661 150.195C387.981 150.532 389.708 150.796 391.491 151.015C393.278 151.234 395.144 151.41 396.744 151.565C398.358 151.721 399.678 151.856 400.408 151.992L400.5 151.5L400.591 151.009C399.808 150.863 398.434 150.724 396.841 150.57C395.236 150.414 393.385 150.239 391.613 150.022C389.837 149.805 388.163 149.546 386.909 149.226C386.279 149.066 385.78 148.895 385.433 148.719C385.055 148.526 384.988 148.392 384.984 148.376L384.5 148.5ZM400.5 151.5L400.408 151.992C400.551 152.018 400.745 152.04 400.928 151.98C401.031 151.947 401.157 151.878 401.247 151.745C401.339 151.611 401.359 151.467 401.35 151.354C401.335 151.157 401.233 150.992 401.161 150.89C401.078 150.771 400.968 150.647 400.845 150.523C400.356 150.032 399.478 149.371 398.403 148.713C396.262 147.403 393.164 146 390.5 146V146.5V147C392.882 147 395.784 148.283 397.881 149.566C398.925 150.205 399.727 150.818 400.136 151.229C400.238 151.33 400.304 151.409 400.343 151.464C400.393 151.536 400.359 151.516 400.353 151.431C400.348 151.373 400.357 151.276 400.423 151.179C400.488 151.085 400.571 151.045 400.617 151.03C400.684 151.008 400.699 151.029 400.591 151.009L400.5 151.5ZM390.5 146.5V146C388.507 146 386.81 146.01 385.681 146.284C385.115 146.421 384.596 146.645 384.269 147.053C383.917 147.491 383.865 148.037 384.016 148.624L384.5 148.5L384.984 148.376C384.885 147.989 384.953 147.798 385.049 147.679C385.168 147.53 385.424 147.375 385.916 147.256C386.902 147.017 388.456 147 390.5 147V146.5Z" fill="#059669"/>
<path d="M357.871 146.053C360.899 146.617 368.131 146.805 372 146.053C370.991 148.121 369.982 150 365.945 150C360.899 150 354.684 145.46 357.871 146.053Z" fill="#059669"/>
<path d="M372 146.053L372.449 146.273C372.533 146.102 372.512 145.9 372.397 145.749C372.281 145.599 372.091 145.526 371.905 145.563L372 146.053ZM357.871 146.053L357.962 145.562L357.871 146.053ZM372 146.053L371.905 145.563C370.02 145.929 367.284 146.07 364.625 146.047C361.966 146.023 359.434 145.836 357.962 145.562L357.871 146.053L357.779 146.545C359.335 146.835 361.934 147.023 364.616 147.047C367.297 147.07 370.112 146.93 372.095 146.544L372 146.053ZM357.871 146.053L357.962 145.562C357.745 145.522 357.549 145.499 357.378 145.5C357.218 145.501 357.027 145.522 356.859 145.612C356.656 145.721 356.509 145.922 356.5 146.181C356.493 146.389 356.58 146.566 356.654 146.684C356.807 146.93 357.074 147.186 357.383 147.432C357.702 147.687 358.104 147.96 358.565 148.234C360.392 149.319 363.297 150.5 365.945 150.5V150V149.5C363.546 149.5 360.821 148.411 359.076 147.374C358.644 147.118 358.281 146.87 358.006 146.651C357.72 146.423 357.563 146.252 357.503 146.155C357.469 146.102 357.503 146.13 357.5 146.214C357.495 146.348 357.41 146.451 357.333 146.493C357.289 146.516 357.287 146.501 357.384 146.5C357.469 146.5 357.598 146.511 357.779 146.545L357.871 146.053ZM365.945 150V150.5C368.044 150.5 369.429 150.009 370.426 149.188C371.404 148.381 371.949 147.298 372.449 146.273L372 146.053L371.551 145.834C371.042 146.876 370.578 147.766 369.79 148.416C369.02 149.051 367.882 149.5 365.945 149.5V150Z" fill="#059669"/>
<path d="M294.809 320.428C294.809 315.525 295.239 302.819 294.809 297C294.235 298.225 292.743 301.226 291.365 303.431C289.643 306.187 291.722 307.644 290.504 308.944C288.352 311.24 287.921 314.456 287.061 320.428C286.2 326.399 294.809 332.831 294.809 331.912V320.428Z" fill="#059669"/>
<path d="M294.809 297L295.806 296.926C295.772 296.473 295.437 296.099 294.99 296.017C294.543 295.934 294.096 296.164 293.903 296.576L294.809 297ZM287.061 320.428L288.05 320.57L287.061 320.428ZM290.504 308.944L291.234 309.627L291.234 309.627L290.504 308.944ZM291.365 303.431L290.517 302.901L290.517 302.901L291.365 303.431ZM294.809 297L293.811 297.074C294.238 302.846 293.809 315.441 293.809 320.428H294.809H295.809C295.809 315.608 296.24 302.791 295.806 296.926L294.809 297ZM294.809 320.428H293.809V331.912H294.809H295.809V320.428H294.809ZM294.809 331.912H293.809C293.809 331.74 293.866 331.457 294.116 331.232C294.342 331.03 294.585 331.003 294.682 331C294.85 330.995 294.928 331.048 294.832 331.007C294.698 330.95 294.435 330.8 294.058 330.531C293.325 330.008 292.328 329.151 291.35 328.079C290.371 327.007 289.441 325.752 288.809 324.438C288.177 323.12 287.873 321.804 288.05 320.57L287.061 320.428L286.071 320.285C285.818 322.038 286.267 323.765 287.007 325.304C287.747 326.845 288.807 328.261 289.873 329.428C290.94 330.596 292.041 331.548 292.896 332.158C293.313 332.457 293.715 332.705 294.048 332.847C294.187 332.906 294.449 333.008 294.743 332.999C294.902 332.995 295.193 332.953 295.452 332.721C295.735 332.467 295.809 332.141 295.809 331.912H294.809ZM287.061 320.428L288.05 320.57C288.484 317.559 288.799 315.331 289.265 313.562C289.724 311.821 290.309 310.614 291.234 309.627L290.504 308.944L289.774 308.26C288.547 309.57 287.841 311.119 287.331 313.053C286.829 314.959 286.498 317.324 286.071 320.285L287.061 320.428ZM290.504 308.944L291.234 309.627C291.733 309.094 291.905 308.507 291.91 307.931C291.915 307.448 291.791 306.907 291.731 306.562C291.602 305.823 291.532 305.052 292.213 303.961L291.365 303.431L290.517 302.901C289.476 304.567 289.585 305.902 289.76 306.906C289.852 307.431 289.912 307.671 289.91 307.913C289.909 308.061 289.884 308.143 289.774 308.26L290.504 308.944ZM291.365 303.431L292.213 303.961C293.622 301.706 295.134 298.663 295.714 297.424L294.809 297L293.903 296.576C293.336 297.787 291.863 300.746 290.517 302.901L291.365 303.431Z" fill="#059669"/>
<path d="M240.064 252.5C239.664 248.1 241.231 242.333 242.064 240L244.064 248C245.064 252 242.064 264.5 242.064 263C242.064 261.5 240.564 258 240.064 252.5Z" fill="#059669"/>
<path d="M242.064 240L243.034 239.757C242.927 239.33 242.553 239.023 242.113 239.001C241.673 238.98 241.271 239.249 241.122 239.664L242.064 240ZM240.064 252.5L241.06 252.409L240.064 252.5ZM244.064 248L245.034 247.757L245.034 247.757L244.064 248ZM242.064 240L241.122 239.664C240.276 242.035 238.648 247.969 239.068 252.591L240.064 252.5L241.06 252.409C240.68 248.231 242.186 242.632 243.006 240.336L242.064 240ZM240.064 252.5L239.068 252.591C239.325 255.412 239.838 257.718 240.282 259.493C240.508 260.4 240.701 261.108 240.849 261.731C240.998 262.359 241.064 262.755 241.064 263H242.064H243.064C243.064 262.495 242.943 261.891 242.795 261.269C242.646 260.642 242.432 259.85 242.222 259.007C241.79 257.282 241.304 255.088 241.06 252.409L240.064 252.5ZM242.064 263H241.064C241.064 263.058 241.065 263.208 241.11 263.369C241.126 263.429 241.194 263.668 241.418 263.868C241.551 263.986 241.739 264.09 241.973 264.117C242.201 264.144 242.391 264.089 242.52 264.029C242.746 263.924 242.871 263.764 242.906 263.718C242.959 263.65 242.996 263.587 243.017 263.547C243.062 263.464 243.097 263.38 243.123 263.312C243.227 263.047 243.352 262.616 243.485 262.103C243.758 261.051 244.107 259.48 244.423 257.741C244.739 256.003 245.026 254.078 245.17 252.324C245.312 250.604 245.327 248.93 245.034 247.757L244.064 248L243.094 248.243C243.301 249.07 243.317 250.458 243.177 252.16C243.04 253.828 242.764 255.684 242.455 257.384C242.146 259.083 241.808 260.605 241.549 261.6C241.417 262.111 241.316 262.442 241.259 262.588C241.245 262.624 241.245 262.62 241.258 262.596C241.264 262.585 241.286 262.545 241.325 262.494C241.347 262.465 241.461 262.316 241.675 262.216C241.799 262.159 241.984 262.105 242.207 262.131C242.436 262.158 242.62 262.26 242.749 262.374C242.965 262.567 243.025 262.792 243.036 262.831C243.07 262.952 243.064 263.036 243.064 263H242.064ZM244.064 248L245.034 247.757L243.034 239.757L242.064 240L241.094 240.243L243.094 248.243L244.064 248Z" fill="#059669"/>
<path d="M240.5 85.5C240.5 88.5 238.485 87.5 236 87.5C233.515 87.5 232 86.433 232 84.5C232 82.567 234.015 81 236.5 81C238.985 81 240.5 83.567 240.5 85.5Z" fill="#059669"/>
<path d="M209.541 71.3717C211.186 69.6499 215.022 70.6543 216.735 71.3717C216.735 69.5001 224 68 224.957 72.4478C225.821 76.4687 219.818 78.3665 218.277 77.2904C216.221 81.0566 211.083 80.3842 209.541 78.3665C207.486 75.6762 207.486 73.5239 209.541 71.3717Z" fill="#059669"/>
<path d="M216.735 71.3717L216.542 71.8329C216.696 71.8975 216.873 71.8807 217.012 71.788C217.151 71.6953 217.235 71.539 217.235 71.3717H216.735ZM209.541 71.3717L209.18 71.0264L209.18 71.0264L209.541 71.3717ZM209.541 78.3665L209.144 78.67L209.144 78.67L209.541 78.3665ZM218.277 77.2904L218.563 76.8804C218.446 76.799 218.301 76.7711 218.162 76.8037C218.024 76.8362 217.906 76.9261 217.838 77.0509L218.277 77.2904ZM224.957 72.4478L224.468 72.5529L224.468 72.5529L224.957 72.4478ZM216.735 71.3717L216.928 70.9105C216.037 70.5372 214.599 70.0903 213.158 69.9591C211.746 69.8305 210.169 69.9911 209.18 71.0264L209.541 71.3717L209.903 71.717C210.559 71.0306 211.722 70.8324 213.067 70.955C214.383 71.0748 215.72 71.4888 216.542 71.8329L216.735 71.3717ZM209.541 71.3717L209.18 71.0264C208.094 72.163 207.5 73.3565 207.5 74.6673C207.5 75.9647 208.083 77.2811 209.144 78.67L209.541 78.3665L209.939 78.063C208.945 76.7617 208.5 75.6567 208.5 74.6673C208.5 73.6914 208.933 72.7326 209.903 71.717L209.541 71.3717ZM209.541 78.3665L209.144 78.67C210.042 79.8452 211.891 80.5507 213.731 80.4972C215.603 80.4427 217.585 79.6009 218.716 77.5299L218.277 77.2904L217.838 77.0509C216.913 78.7461 215.298 79.4512 213.702 79.4976C212.073 79.545 210.582 78.9055 209.939 78.063L209.541 78.3665ZM218.277 77.2904L217.99 77.7004C218.53 78.0771 219.35 78.1432 220.15 78.0498C220.979 77.953 221.907 77.6718 222.754 77.222C224.429 76.3317 225.946 74.6714 225.445 72.3427L224.957 72.4478L224.468 72.5529C224.832 74.2451 223.78 75.5441 222.284 76.3389C221.545 76.7316 220.737 76.9745 220.034 77.0565C219.303 77.142 218.794 77.0417 218.563 76.8804L218.277 77.2904ZM224.957 72.4478L225.445 72.3427C225.174 71.0801 224.444 70.2241 223.512 69.7035C222.596 69.1916 221.502 69.012 220.473 69.0402C219.444 69.0684 218.436 69.3056 217.669 69.6741C217.286 69.858 216.942 70.0849 216.686 70.3541C216.432 70.6229 216.235 70.9679 216.235 71.3717H216.735H217.235C217.235 71.3076 217.266 71.1964 217.412 71.0422C217.558 70.8886 217.789 70.7259 218.102 70.5755C218.727 70.2753 219.594 70.0646 220.501 70.0398C221.408 70.015 222.31 70.1773 223.025 70.5766C223.724 70.9673 224.261 71.5916 224.468 72.5529L224.957 72.4478Z" fill="#059669"/>
<path d="M258.328 14.4474C254.656 12.5646 232.898 15.8785 236.424 21.9343C238.5 25.5 262 16.3301 258.328 14.4474Z" fill="#059669" stroke="#059669"/>
<path d="M223.5 28.4999C221 25.9999 209.5 34 211.5 36.4999C215.078 40.9719 226 30.9999 223.5 28.4999Z" fill="#059669" stroke="#059669"/>
<path d="M169.5 83.5C171.5 83.5 180.728 83.0002 183 83C185.272 82.9998 180 86.5 177.5 86.5C173.692 86.5 168.382 83.5 169.5 83.5Z" fill="#059669" stroke="#059669"/>
<path d="M143.915 75.7081C148.376 80.7385 153 80.9999 157.5 80.9999C155.927 82.451 154.381 83.3506 150.778 82.9636C146.274 82.4799 142.4 74 143.915 75.7081Z" fill="#059669" stroke="#059669" stroke-width="2" stroke-linejoin="round"/>
<path d="M99.5247 95.9198C96 92 92.0948 96.5315 93.1399 98.9723C94.8202 102.897 103.049 99.8396 99.5247 95.9198Z" fill="#059669" stroke="#059669"/>
<path d="M77.9999 85C74.4999 79.5 66.9449 85.7014 68.4999 88.5C71 93 81.4999 90.5 77.9999 85Z" fill="#059669" stroke="#059669"/>
</svg>
