<svg width="538" height="391" viewBox="0 0 538 391" fill="none" xmlns="http://www.w3.org/2000/svg">
<path d="M325.104 119.847C328.704 96.6474 338.63 97.5893 341 103.5C342.604 107.5 342 116 345.5 122C349.245 128.42 357 133.621 367 135C379.383 136.708 392.745 134.376 396.5 126C403 111.5 408.5 102 421 96.0004C434.142 89.6926 459.481 83.8201 474.104 91.3473C488 98.5001 492.519 111.807 483.5 128.5C475.396 143.5 455.113 159.699 431.604 160.847C408 162 403.66 146.707 382.5 144.847C370.426 143.786 358.5 146.458 351 144.847C343.5 143.237 337.5 139.5 333.104 135.847C331.194 134.26 333.604 140.847 330.604 142.347C327.604 143.847 321.504 143.047 325.104 119.847Z" fill="#FFDACA"/>
<path d="M213.069 123.041C209.469 99.841 199.544 100.783 197.173 106.694C195.569 110.694 195 117.041 191.5 123.041C187.755 129.461 176 134.621 166 136C153.617 137.708 144.255 135.376 140.5 127C134 112.5 129.673 105.194 117.173 99.1939C104.031 92.8861 78.6924 87.0137 64.0691 94.5409C50.1733 101.694 45.6544 115 54.6733 131.694C62.7774 146.694 81.5916 163.959 105 161.5C124.431 159.459 125.84 151.86 147 150C158.5 148.989 177 148.61 184.5 147C192 145.39 200.104 140.653 204.5 137C206.41 135.413 204.569 144.041 207.569 145.541C210.569 147.041 216.669 146.241 213.069 123.041Z" fill="#FFDACA"/>
<path d="M266 13.9998C301.391 11.2239 312.858 33.4837 351 54.9998C390 76.9998 411 42.9998 438.5 25.9998C456.5 14.8725 464 18.2158 477 13.9998C490.5 9.6216 499.5 -0.000287235 511.5 -0.000244141C524.248 -0.000198362 535.196 15.7387 531.5 39.5C528 62 515 84 504 100C487.697 123.714 494.5 156 487.5 156.5C484.382 156.723 486.5 142 490.5 127.5C493.305 117.332 482 154.5 475 154.5C469.4 154.5 480.834 140.333 484 131C480.5 138.333 468.5 154.5 466 150C463.801 146.042 489.086 130.5 487.5 111C486.627 100.265 469.168 78.4366 441 88.9998C425 95 408.5 98.5 408.5 91.5C408.5 87.4318 427 89.035 444.5 82.0352C461.621 75.1873 485.63 76.6659 489 75.5C505 69.9648 498.095 65.286 502 56.5C506 47.4998 508 48.0438 508 39.5C508 36 502.5 29.5 489 32.5C475.5 35.5 475 46 462 47.4998C444.057 49.57 442.772 45.796 431 50C417 54.9998 409.5 77.0002 389 85.5C371.298 92.8399 355 83.5 347.5 86.4998C341.051 89.0794 344.211 100.473 343 115C341.5 133 334 142 327 152C320 162 308 166.5 307 183.5C306 200.5 317 226.5 314.5 238.5C312 250.5 304.5 253 303 274.5C301.5 296 300.5 318 300.5 338C300.5 349.673 299 377 290 386C285 391 251.346 393 246.5 386C238.885 375 234.455 309.459 235.5 293C237.5 261.5 219.696 248.119 221 229C222.5 207 232.451 200.711 227.5 187C221 169 206.5 162.58 206.5 148.5C206.5 128.5 191.165 110.985 189.5 93.4998C188.5 83 181.571 91 174.5 91C170.5 91 162 91.5 151.5 86.5C140.875 81.4403 132.674 71.1335 119.5 60.9998C113 56 107.5 50.9116 98.5001 47.9998C81.5001 42.4998 76.6708 46.8742 66.5001 42.9998C56.0001 39 51.5001 29.5 42.0001 30.9998C36.5001 31.8681 26.5 37.6361 30.5 46C35.9999 57.5002 32.0001 64 45.5001 71.5C58.243 78.5794 80.6879 81.1543 91.5001 83.9998C101 86.5 121 90.5 125 93.4998C128.418 96.0629 122.465 99.0281 109.353 97.4969C115.967 99.5804 121.897 102.31 121 105C119.5 109.5 103.583 103.5 91.5001 103.5C89.5001 103.5 123 113 115.5 115C108 117 100 111 94.0001 109.5C99.5001 117 101.855 124.603 98.5001 127C95.0001 129.5 91.5001 124.727 83.0001 117C72.3284 107.299 92.5001 127 91.5001 133C90.4283 139.43 77.812 127 70.5001 123C62.6532 118.707 86.0001 137 83.0001 142.5C80.0385 147.93 72.0001 135.5 66.5001 129.5C58.3283 120.585 71.5001 142.5 70.5001 148.5C69.6419 153.649 66.4726 144.803 61.0001 135.5C56.0001 127 69.0001 157 61.0001 158C54.6001 158.8 57.0001 135.5 53.0001 127C54.8334 136.333 49.9001 159 45.5001 159C40.0001 159 49.0001 134.5 42.0001 119C35.0001 103.5 39.0001 113 32.0001 98.4998C25.0001 83.9998 13.5 74.5 4.00009 47.9998C-4.45152 24.424 6.26566 6.00734 18.4999 1.5C28 -2 35 7 45.5001 8.49981C66.9903 11.5694 79.0001 9.99981 94.0001 20.4998C109 30.9998 141.5 65.9998 165.5 60.9998C209.5 51.8331 215 17.9998 266 13.9998Z" fill="#FFC3D0"/>
<path d="M28.5 89.4999C20 81.1666 3.79997 59.6999 6.99997 40.4999C11 16.4999 5 3.49992 20 4.99992C35 6.49992 38 13 62.5 15.5C87 18 84.5 17.5 94 22.5C103.5 27.5 114.5 46 129 51C143.5 56 145.5 62 169.5 64.5C193.5 67 210 48.5 221.5 51C230.7 53 230.667 47.5 229.5 44.5L238.5 41.5L245.5 37.5L255 34.5C259 33.5 268.8 32.1 276 34.5C283.2 36.9 288.333 37.5 290 37.5L299.5 41.5L313 51C316.667 54.5 326.7 62.1 337.5 64.5C351 67.5 349.5 68.5 363.5 66.5C377.5 64.5 391 62.5 406.5 53.5C422 44.5 429.5 31 442.5 26C455.5 21 465.5 22.5 483 12.5C500.5 2.5 505.5 -1.90735e-06 515.5 0.999998C525.5 2 537 24 536.5 37.5C536 51 503 89.5 499.5 113C496 136.5 499.5 154 494.5 155.5C490.5 156.7 492.833 130.667 494.5 117.5C492.667 128.167 487.8 150.1 483 152.5C478.2 154.9 486 133.167 490.5 122C485.333 131 474.1 149 470.5 149C466 149 493 124.5 488 110.5C483 96.5 467.5 85 449.5 89C431.5 93 411.5 100 412 94.5C412.5 89 427.5 83.5 442.5 82C457.5 80.5 493.5 80.5 496.5 72.5C499.5 64.5 496.5 56 503 53.5C509.5 51 512.5 44.5 510 37.5C507.5 30.5 492 25.5 483 30C474 34.5 472.5 41.5 464.5 41.5C456.5 41.5 436.5 35.5 428.5 44.5C420.5 53.5 397.5 82 379 82C360.5 82 346 83.5 334.5 75C323 66.5 314 68 308.5 75C303 82 304.5 84 299.5 86.5C294.5 89 294.5 90.5 294.5 94.5C294.5 98.5 289.5 98.5 294.5 104.5C299.5 110.5 290 108 290 110.5C290 113 299 115 294.5 117.5C290 120 287.5 117.5 285.5 122C283.5 126.5 284 123.5 283 128.5C282 133.5 274.5 144.5 273 148C271.5 151.5 270 169 273 184C276 199 263 216 273 222.5C283 229 300.5 208.5 303.5 215.5C306.5 222.5 299.5 217 299.5 230C299.5 243 304.5 248 299.5 258.5C294.5 269 299 295.5 294.5 309.5C290 323.5 292.5 316 292 328.5C291.5 341 297.5 344.5 292 355C286.5 365.5 299 377 282.5 384.5C266 392 257 387 251.5 384.5C246 382 251 363.5 249 355C247 346.5 251.5 346.5 251.5 337.5C251.5 328.5 243 319 246 305C249 291 251.5 281.5 246 270C240.5 258.5 245.5 240.5 240.5 230C235.5 219.5 235 208.5 240.5 215.5C246 222.5 243.5 230 251.5 230C259.5 230 261.5 210 263.5 197C265.5 184 263.5 157 263.5 149C263.5 141 254 142 255.5 137C257 132 254.5 132 253 128.5C251.5 125 249.5 131.5 249 124.5C248.5 117.5 247.5 119.5 246 117.5C244.5 115.5 246 114.5 246 110.5C246 106.5 244.5 109.5 244.5 104.5C244.5 99.5 242.5 100.5 241.5 99.5C240.5 98.5 238.5 95 241.5 92C244.5 89 243 89.5 241.5 86.5C240 83.5 226.5 72.5 219.5 75C212.5 77.5 211 69.5 199.5 76.5C188 83.5 183 86.5 166.5 86.5C150 86.5 130 67.5001 112 54C94 40.4999 106.5 43.4998 84.5 40.4999C62.5 37.5 58 33.5 53 28C48 22.5 37 24.5 34.5 31C32 37.5 22.4999 38 28.5 44.5C34.5 51 29.5 58 37 66.5C43 73.3 56.5 78 62.5 79.5C81.6667 84.8334 120.9 94.9001 124.5 92.5C128.851 89.599 123.852 102.594 103.626 98.4825C113.455 101.146 128.751 105.84 121.5 107C113.569 108.269 100.919 105.009 92.2834 102.109C104.786 106.825 120.992 113.941 115.5 116C107.5 119 107 112.5 101.5 112C96 111.5 106 121.5 101.5 124.5C97 127.5 91 127 86.5 121.5C82 116 93.5 134 89 135C86.4283 135.572 81.2436 132.877 76.8059 129.436C80.1232 134.314 82.8018 139.579 80.5 140.5C76.6148 142.054 68.6415 131.155 64.8271 125.03C70.0403 133.519 78.7003 149.5 74 149.5C69.2 149.5 63.3333 140.167 61 135.5C62.8333 140.667 65.4 151.1 61 151.5C57.4885 151.819 55.0173 142.394 53.7388 134.762C54.6657 142.931 54.8765 153.531 51 154.5C45 156 47.5 123 43.5 110.5C40.3 100.5 32.1666 92.3333 28.5 89.4999Z" fill="#F79BCA"/>
<path d="M28.5 89.4999C20 81.1666 3.79997 59.6999 6.99997 40.4999C11 16.4999 5 3.49992 20 4.99992C35 6.49992 38 13 62.5 15.5C87 18 84.5 17.5 94 22.5C103.5 27.5 114.5 46 129 51C143.5 56 145.5 62 169.5 64.5C193.5 67 210 48.5 221.5 51C230.7 53 230.667 47.5 229.5 44.5L238.5 41.5L245.5 37.5L255 34.5C259 33.5 268.8 32.1 276 34.5C283.2 36.9 288.333 37.5 290 37.5L299.5 41.5L313 51C316.667 54.5 326.7 62.1 337.5 64.5C351 67.5 349.5 68.5 363.5 66.5C377.5 64.5 391 62.5 406.5 53.5C422 44.5 429.5 31 442.5 26C455.5 21 465.5 22.5 483 12.5C500.5 2.5 505.5 -1.89245e-06 515.5 0.999998C525.5 2 537 24 536.5 37.5C536 51 503 89.5 499.5 113C496 136.5 499.5 154 494.5 155.5C490.5 156.7 492.833 130.667 494.5 117.5C492.667 128.167 487.8 150.1 483 152.5C478.2 154.9 486 133.167 490.5 122C485.333 131 474.1 149 470.5 149C466 149 493 124.5 488 110.5C483 96.5 467.5 85 449.5 89C431.5 93 411.5 100 412 94.5C412.5 89 427.5 83.5 442.5 82C457.5 80.5 493.5 80.5 496.5 72.5C499.5 64.5 496.5 56 503 53.5C509.5 51 512.5 44.5 510 37.5C507.5 30.5 492 25.5 483 30C474 34.5 472.5 41.5 464.5 41.5C456.5 41.5 436.5 35.5 428.5 44.5C420.5 53.5 397.5 82 379 82C360.5 82 346 83.5 334.5 75C323 66.5 314 68 308.5 75C303 82 304.5 84 299.5 86.5C294.5 89 294.5 90.5 294.5 94.5C294.5 98.5 289.5 98.5 294.5 104.5C299.5 110.5 290 108 290 110.5C290 113 299 115 294.5 117.5C290 120 287.5 117.5 285.5 122C283.5 126.5 284 123.5 283 128.5C282 133.5 274.5 144.5 273 148C271.5 151.5 270 169 273 184C276 199 263 216 273 222.5C283 229 300.5 208.5 303.5 215.5C306.5 222.5 299.5 217 299.5 230C299.5 243 304.5 248 299.5 258.5C294.5 269 299 295.5 294.5 309.5C290 323.5 292.5 316 292 328.5C291.5 341 297.5 344.5 292 355C286.5 365.5 299 377 282.5 384.5C266 392 257 387 251.5 384.5C246 382 251 363.5 249 355C247 346.5 251.5 346.5 251.5 337.5C251.5 328.5 243 319 246 305C249 291 251.5 281.5 246 270C240.5 258.5 245.5 240.5 240.5 230C235.5 219.5 235 208.5 240.5 215.5C246 222.5 243.5 230 251.5 230C259.5 230 261.5 210 263.5 197C265.5 184 263.5 157 263.5 149C263.5 141 254 142 255.5 137C257 132 254.5 132 253 128.5C251.5 125 249.5 131.5 249 124.5C248.5 117.5 247.5 119.5 246 117.5C244.5 115.5 246 114.5 246 110.5C246 106.5 244.5 109.5 244.5 104.5C244.5 99.5 242.5 100.5 241.5 99.5C240.5 98.5 238.5 95 241.5 92C244.5 89 243 89.5 241.5 86.5C240 83.5 226.5 72.5 219.5 75C212.5 77.5 211 69.5 199.5 76.5C188 83.5 183 86.5 166.5 86.5C150 86.5 130 67.5001 112 54C94 40.4999 106.5 43.4998 84.5 40.4999C62.5 37.5 58 33.5 53 28C48 22.5 37 24.5 34.5 31C32 37.5 22.4999 38 28.5 44.5C34.5 51 29.5 58 37 66.5C43 73.3 56.5 78 62.5 79.5C81.6667 84.8334 120.9 94.9001 124.5 92.5C129 89.4999 123.5 103.5 101.5 98C79.5 92.5 134 105 121.5 107C111.5 108.6 94 103 86.5 100C98.8333 104.333 121.9 113.6 115.5 116C107.5 119 107 112.5 101.5 112C96 111.5 106 121.5 101.5 124.5C97 127.5 91 127 86.5 121.5C82 116 93.5 134 89 135C84.5 136 72 127 69.5 121.5C67 116 85.5 138.5 80.5 140.5C76.5 142.1 68.1667 130.5 64.5 124.5C69.6667 132.833 78.8 149.5 74 149.5C69.2 149.5 63.3333 140.167 61 135.5C62.8333 140.667 65.4 151.1 61 151.5C56.6 151.9 53.8333 137 53 129.5C54.3333 137.333 55.8 153.3 51 154.5C45 156 47.5 123 43.5 110.5C40.3 100.5 32.1666 92.3333 28.5 89.4999Z" stroke="#F79BCA"/>
</svg>
